<mxfile host="Electron" modified="2024-02-15T13:58:39.753Z" agent="Mozilla/5.0 (Windows NT 10.0; Win64; x64) AppleWebKit/537.36 (KHTML, like Gecko) draw.io/23.0.2 Chrome/120.0.6099.109 Electron/28.1.0 Safari/537.36" etag="0fH2aqBtfsA-5zYwlWbF" version="23.0.2" type="device">
  <diagram name="Страница — 1" id="Gdz1S3-HGPJG9bNexEjS">
    <mxGraphModel dx="915" dy="690" grid="1" gridSize="10" guides="1" tooltips="1" connect="1" arrows="1" fold="1" page="1" pageScale="1" pageWidth="827" pageHeight="1169" math="0" shadow="0">
      <root>
        <mxCell id="0" />
        <mxCell id="1" parent="0" />
        <mxCell id="g72T-omKQJwLkgUXmetp-19" value="" style="rounded=0;whiteSpace=wrap;html=1;fillColor=#d5e8d4;strokeColor=#82b366;" vertex="1" parent="1">
          <mxGeometry x="260" y="230" width="510" height="300" as="geometry" />
        </mxCell>
        <mxCell id="g72T-omKQJwLkgUXmetp-1" value="Пользователь" style="shape=umlActor;verticalLabelPosition=bottom;verticalAlign=top;html=1;fillColor=#ffe6cc;strokeColor=#d79b00;" vertex="1" parent="1">
          <mxGeometry x="170" y="250" width="30" height="60" as="geometry" />
        </mxCell>
        <mxCell id="g72T-omKQJwLkgUXmetp-2" value="Гость" style="shape=umlActor;verticalLabelPosition=bottom;verticalAlign=top;html=1;fillColor=#ffe6cc;strokeColor=#d79b00;" vertex="1" parent="1">
          <mxGeometry x="660" y="530" width="30" height="60" as="geometry" />
        </mxCell>
        <mxCell id="g72T-omKQJwLkgUXmetp-3" value="Восстановление &lt;br&gt;пароля" style="ellipse;whiteSpace=wrap;html=1;fillColor=#ffe6cc;strokeColor=#d79b00;" vertex="1" parent="1">
          <mxGeometry x="320" y="440" width="140" height="70" as="geometry" />
        </mxCell>
        <mxCell id="g72T-omKQJwLkgUXmetp-4" value="Регистрация" style="ellipse;whiteSpace=wrap;html=1;fillColor=#ffe6cc;strokeColor=#d79b00;" vertex="1" parent="1">
          <mxGeometry x="620" y="245" width="140" height="70" as="geometry" />
        </mxCell>
        <mxCell id="g72T-omKQJwLkgUXmetp-5" value="Выйти из системы" style="ellipse;whiteSpace=wrap;html=1;fillColor=#ffe6cc;strokeColor=#d79b00;" vertex="1" parent="1">
          <mxGeometry x="280" y="250" width="140" height="70" as="geometry" />
        </mxCell>
        <mxCell id="g72T-omKQJwLkgUXmetp-6" value="Авторизация" style="ellipse;whiteSpace=wrap;html=1;fillColor=#ffe6cc;strokeColor=#d79b00;" vertex="1" parent="1">
          <mxGeometry x="380" y="345" width="140" height="70" as="geometry" />
        </mxCell>
        <mxCell id="g72T-omKQJwLkgUXmetp-9" value="" style="endArrow=none;html=1;rounded=0;" edge="1" parent="1" source="g72T-omKQJwLkgUXmetp-2" target="g72T-omKQJwLkgUXmetp-4">
          <mxGeometry width="50" height="50" relative="1" as="geometry">
            <mxPoint x="400" y="520" as="sourcePoint" />
            <mxPoint x="450" y="470" as="targetPoint" />
          </mxGeometry>
        </mxCell>
        <mxCell id="g72T-omKQJwLkgUXmetp-10" value="" style="endArrow=none;html=1;rounded=0;" edge="1" parent="1" source="g72T-omKQJwLkgUXmetp-1" target="g72T-omKQJwLkgUXmetp-5">
          <mxGeometry width="50" height="50" relative="1" as="geometry">
            <mxPoint x="400" y="520" as="sourcePoint" />
            <mxPoint x="450" y="470" as="targetPoint" />
          </mxGeometry>
        </mxCell>
        <mxCell id="g72T-omKQJwLkgUXmetp-12" value="Почтовый сервер" style="shape=umlActor;verticalLabelPosition=bottom;verticalAlign=top;html=1;outlineConnect=0;fillColor=#ffe6cc;strokeColor=#d79b00;" vertex="1" parent="1">
          <mxGeometry x="170" y="430" width="30" height="60" as="geometry" />
        </mxCell>
        <mxCell id="g72T-omKQJwLkgUXmetp-13" value="" style="endArrow=none;html=1;rounded=0;" edge="1" parent="1" source="g72T-omKQJwLkgUXmetp-2" target="g72T-omKQJwLkgUXmetp-3">
          <mxGeometry width="50" height="50" relative="1" as="geometry">
            <mxPoint x="460" y="480" as="sourcePoint" />
            <mxPoint x="510" y="430" as="targetPoint" />
          </mxGeometry>
        </mxCell>
        <mxCell id="g72T-omKQJwLkgUXmetp-14" value="" style="endArrow=none;html=1;rounded=0;" edge="1" parent="1" source="g72T-omKQJwLkgUXmetp-12" target="g72T-omKQJwLkgUXmetp-3">
          <mxGeometry width="50" height="50" relative="1" as="geometry">
            <mxPoint x="460" y="480" as="sourcePoint" />
            <mxPoint x="510" y="430" as="targetPoint" />
          </mxGeometry>
        </mxCell>
        <mxCell id="g72T-omKQJwLkgUXmetp-15" value="Ввод нового пароля" style="ellipse;whiteSpace=wrap;html=1;fillColor=#ffe6cc;strokeColor=#d79b00;" vertex="1" parent="1">
          <mxGeometry x="460" y="260" width="140" height="70" as="geometry" />
        </mxCell>
        <mxCell id="g72T-omKQJwLkgUXmetp-16" value="" style="endArrow=none;html=1;rounded=0;" edge="1" parent="1" source="g72T-omKQJwLkgUXmetp-2" target="g72T-omKQJwLkgUXmetp-15">
          <mxGeometry width="50" height="50" relative="1" as="geometry">
            <mxPoint x="460" y="480" as="sourcePoint" />
            <mxPoint x="510" y="430" as="targetPoint" />
          </mxGeometry>
        </mxCell>
        <mxCell id="g72T-omKQJwLkgUXmetp-17" value="" style="endArrow=none;html=1;rounded=0;" edge="1" parent="1" source="g72T-omKQJwLkgUXmetp-2" target="g72T-omKQJwLkgUXmetp-6">
          <mxGeometry width="50" height="50" relative="1" as="geometry">
            <mxPoint x="660" y="540" as="sourcePoint" />
            <mxPoint x="510" y="570" as="targetPoint" />
          </mxGeometry>
        </mxCell>
        <mxCell id="g72T-omKQJwLkgUXmetp-18" value="use case" style="shape=umlFrame;whiteSpace=wrap;html=1;pointerEvents=0;width=140;height=20;" vertex="1" parent="1">
          <mxGeometry x="130" y="190" width="670" height="430" as="geometry" />
        </mxCell>
      </root>
    </mxGraphModel>
  </diagram>
</mxfile>
